<svg
  xmlns="http://www.w3.org/2000/svg"
  xmlSpace="preserve"
  width="297mm"
  height="210mm"
  version="1.1"
  style="shape-rendering:geometricPrecision; text-rendering:geometricPrecision; image-rendering:optimizeQuality; fill-rule:evenodd; clip-rule:evenodd"
  viewBox="0 0 29700 21000"
>
  <g id="Layer_x0020_1">
    <g id="_2573372575872">
      <path
        fill="currentColor"
        d="M11019.43 19315.51c1873.27,1567.62 1508.55,919.76 1650.3,-1299.7 3820.89,-0.25 5541.3,577.24 7686.29,-1555.17 1757.62,-1747.29 1199.75,-5144.7 -627.79,-6451.19 -1304.3,-932.4 -1726.44,-911.36 -3726.97,-911.36 -1164.35,0 -3437.3,285.64 -4213.32,-383.26 -1159.02,-999.05 -547.47,-2508.94 535.03,-2842.04 410.33,-126.3 3836.66,-107.64 4472.01,-47.66 545.49,2038.64 -787.31,3070.46 2139.02,900.27 487.18,-361.27 2756.54,-1993.87 2642.04,-2528.12 -71.39,-332.98 -2388.93,-2016 -2831.39,-2386.94 -2103.49,-1763.26 -1683.09,-990.78 -1931.07,1172.49 -3663.28,270.24 -5476.19,-869.99 -7649.2,1634.2 -1674.1,1929.21 -955.17,4994.6 981.21,6447.92 2349.22,1763.26 6554.46,25.66 7887.63,1398.54 1031.25,1062.1 205.84,2733.25 -943.5,2746.34l-4333.58 49.64 -90.64 -1831.76c-419.89,-821.82 -2346.98,1115.21 -2759.48,1436.05 -723.17,562.42 -2561.86,1508.29 -1425.49,2368.02 861.72,651.96 1765.06,1436.13 2538.9,2083.73z"
      />
    </g>
  </g>
</svg>
